# xmcd
#
# Track frame offsets:
#	150
#	17125
#	36350
#
# Disc length: 720 seconds
#
# Revision: 0
# Processed by: cddbd v1.5.1PL2 Copyright (c) Steve Scherf et al.
# Submitted via: audiograbber 1.83.01
#
DISCID=1e02ce03
DTITLE=The Graduates - Don't Fade Away
DYEAR=1992
DGENRE=Country
TTITLE0=Don't Fade Away
TTITLE1=The Rain
TTITLE2=Don't Fade Away (Extended Version)
EXTD=
EXTT0=
EXTT1=
EXTT2=
PLAYORDER=
